<?xml version="1.0" encoding="UTF-8"?>
<svg id="Layer_2" data-name="Layer 2" xmlns="http://www.w3.org/2000/svg" viewBox="0 0 202.91 214.07"><defs><style>.cls-1{fill:#949aa3;}.cls-2,.cls-5{fill:#616975;}.cls-2{fill-rule:evenodd;}.cls-3,.cls-4,.cls-6{fill:none;stroke:#616975;stroke-miterlimit:10;}.cls-3{stroke-width:1.13px;}.cls-4{stroke-width:1.97px;}.cls-6{stroke-width:0.56px;}</style></defs><title>zapchasti</title><g id="_Group_" data-name="&lt;Group&gt;"><path id="_Compound_Path_" data-name="&lt;Compound Path&gt;" class="cls-1" d="M927,807.48a9.31,9.31,0,0,1,10-7.75,52.88,52.88,0,0,0-1-9.88,9.31,9.31,0,0,1-6.59-17.35,53.43,53.43,0,0,0-5.78-8,9.31,9.31,0,0,1-14.34-11.76,52.37,52.37,0,0,0-9-4.07,9.3,9.3,0,0,1-18.29-3,54.54,54.54,0,0,0-9.86,1,9.31,9.31,0,0,1-17.37,6.53,54.71,54.71,0,0,0-8.06,5.76,9.3,9.3,0,0,1-11.81,14.3,53.84,53.84,0,0,0-4.11,9.05,9.31,9.31,0,0,1-3.08,18.31,54,54,0,0,0,1,9.91,9.31,9.31,0,0,1,6.52,17.4,54.93,54.93,0,0,0,5.8,8.13,9.31,9.31,0,0,1,14.34,11.81,52.7,52.7,0,0,0,9.1,4.12,9.32,9.32,0,0,1,18.35,3,53.53,53.53,0,0,0,9.94-1,9.3,9.3,0,0,1,17.37-6.57,54.94,54.94,0,0,0,8.11-5.84,9.31,9.31,0,0,1,11.77-14.38,54,54,0,0,0,4.09-9.08A9.31,9.31,0,0,1,927,807.48Zm-49.81,24.15a31.81,31.81,0,1,1,36.56-26.2A31.81,31.81,0,0,1,877.17,831.63Z" transform="translate(-827.69 -694.75)"/><path id="_Compound_Path_2" data-name="&lt;Compound Path&gt;" class="cls-1" d="M1020.57,756.65a9.31,9.31,0,0,1,10-7.75,52.89,52.89,0,0,0-1-9.88,9.31,9.31,0,0,1-6.59-17.35,53.43,53.43,0,0,0-5.78-8,9.31,9.31,0,0,1-14.34-11.76,52.36,52.36,0,0,0-9-4.07,9.3,9.3,0,0,1-18.29-3,54.54,54.54,0,0,0-9.86,1,9.31,9.31,0,0,1-17.37,6.53,54.72,54.72,0,0,0-8.06,5.76,9.3,9.3,0,0,1-11.81,14.3,53.83,53.83,0,0,0-4.11,9.05,9.31,9.31,0,0,1-3.08,18.31,54,54,0,0,0,1,9.91,9.31,9.31,0,0,1,6.52,17.4,54.92,54.92,0,0,0,5.8,8.13,9.31,9.31,0,0,1,14.34,11.81A52.7,52.7,0,0,0,958,801a9.32,9.32,0,0,1,18.35,3,53.53,53.53,0,0,0,9.94-1,9.3,9.3,0,0,1,17.37-6.57,54.93,54.93,0,0,0,8.11-5.84,9.31,9.31,0,0,1,11.77-14.38,54,54,0,0,0,4.09-9.08A9.31,9.31,0,0,1,1020.57,756.65Zm-49.81,24.15a31.81,31.81,0,1,1,36.56-26.2A31.81,31.81,0,0,1,970.76,780.79Z" transform="translate(-827.69 -694.75)"/><path id="_Compound_Path_3" data-name="&lt;Compound Path&gt;" class="cls-1" d="M1015.56,861.4a9.31,9.31,0,0,1,10-7.75,52.89,52.89,0,0,0-1-9.88,9.31,9.31,0,0,1-6.59-17.35,53.43,53.43,0,0,0-5.78-8,9.31,9.31,0,0,1-14.34-11.76,52.37,52.37,0,0,0-9-4.07,9.3,9.3,0,0,1-18.29-3,54.54,54.54,0,0,0-9.86,1A9.31,9.31,0,0,1,943.34,807a54.71,54.71,0,0,0-8.06,5.76,9.3,9.3,0,0,1-11.81,14.3,53.84,53.84,0,0,0-4.11,9.05,9.31,9.31,0,0,1-3.08,18.31,54,54,0,0,0,1,9.91,9.31,9.31,0,0,1,6.52,17.4,54.92,54.92,0,0,0,5.8,8.13,9.31,9.31,0,0,1,14.34,11.81,52.7,52.7,0,0,0,9.1,4.12,9.32,9.32,0,0,1,18.35,3,53.53,53.53,0,0,0,9.94-1,9.3,9.3,0,0,1,17.37-6.57,54.94,54.94,0,0,0,8.11-5.84,9.31,9.31,0,0,1,11.77-14.38,54,54,0,0,0,4.09-9.08A9.31,9.31,0,0,1,1015.56,861.4Zm-49.81,24.15a31.81,31.81,0,1,1,36.56-26.2A31.81,31.81,0,0,1,965.75,885.55Z" transform="translate(-827.69 -694.75)"/></g><path class="cls-2" d="M982.81,766.09a1,1,0,1,0-1.41.22,1,1,0,0,0,1.41-.22h0ZM976.15,769a1,1,0,1,0-.89-1.11,1,1,0,0,0,.89,1.11h0Zm-5.87-4.3a1,1,0,1,0,.52-1.33,1,1,0,0,0-.52,1.33h0Zm13.32-5.87a1,1,0,1,0-.52,1.33,1,1,0,0,0,.52-1.33h0Zm-12.53-1.37a1,1,0,1,0,1.41-.22,1,1,0,0,0-1.41.22h0Zm6.66-2.93a1,1,0,1,0,.89,1.11,1,1,0,0,0-.89-1.11h0Zm0.3-2.79a10.08,10.08,0,1,1-11.11,8.93A10.08,10.08,0,0,1,978,751.77h0Zm0.07-.67a10.75,10.75,0,1,1-11.85,9.52,10.75,10.75,0,0,1,11.85-9.52h0Zm-0.85,7.8a2.9,2.9,0,1,0,2.57,3.2,2.9,2.9,0,0,0-2.57-3.2h0Zm1-9.42a12.37,12.37,0,1,1-13.64,11,12.37,12.37,0,0,1,13.64-11h0Zm-17-15.46a2,2,0,1,0,1.76,2.19,2,2,0,0,0-1.76-2.19h0Zm0.43-4a6,6,0,1,1-6.59,5.3,6,6,0,0,1,6.59-5.3h0Zm33.06,7a7.86,7.86,0,1,0,7,8.67,7.86,7.86,0,0,0-7-8.67h0Zm-0.64,5.84a2,2,0,1,1-2.19,1.76,2,2,0,0,1,2.19-1.76h0Zm-28-11.48a6.85,6.85,0,0,1,1.53,2.79l20.33,4.39q0.26-.25.55-0.48a8.67,8.67,0,0,1,2.37-1.35l-24.77-5.34h0Zm31.59,21.27a8.62,8.62,0,0,1-3.51.85l-4.21,6.07a13.19,13.19,0,0,1,.1,3.58q0,0.3-.08.61l7.71-11.11h0Zm-33.84,7.81,0-.16a13.2,13.2,0,0,1,1.06-3.95L960,742.7a6.73,6.73,0,0,1-3-1.28Z" transform="translate(-827.69 -694.75)"/><path class="cls-2" d="M979.94,842.53L978.48,863l1.45,0.28L979.62,868l-4-.79-0.63,3.2a0.21,0.21,0,0,1-.23.13,0.35,0.35,0,0,0-.33.26l-0.28,1.42a0.36,0.36,0,0,0,.25.39,0.12,0.12,0,0,1,.12.15l-0.24,1.2-17.42-3.41,0.24-1.2a0.12,0.12,0,0,1,.16-0.09,0.36,0.36,0,0,0,.38-0.27l0.28-1.42a0.35,0.35,0,0,0-.2-0.37,0.21,0.21,0,0,1-.16-0.2l0.48-2.46,7.81,1.53,0.15-.74-7.81-1.53-4-.79,1.47-4.46,1.59,0.31,6-19.58,2.38,0.47-6,19.58,2.4,0.47L966.8,840l2.37,0.46-4.83,19.8,2.27,0.44,3.73-20,2.37,0.46-3.73,20,2.29,0.45,2.61-20.23,2.37,0.46L973.63,862l2.47,0.48,1.46-20.46,2.38,0.47h0ZM963.7,835.9l17.25,3.37L980.73,842l-17.83-3.49Z" transform="translate(-827.69 -694.75)"/><circle class="cls-3" cx="867.82" cy="781.26" r="2.57" transform="translate(-1047.37 -338.73) rotate(-20.64)"/><circle class="cls-4" cx="882.29" cy="819.66" r="4.47" transform="translate(-1059.97 -331.16) rotate(-20.64)"/><rect class="cls-5" x="866.16" y="783.03" width="5.13" height="1.26" transform="translate(-1048.15 -338.25) rotate(-20.64)"/><rect class="cls-5" x="877.89" y="813.76" width="5.13" height="2.08" transform="translate(-1058.38 -332.12) rotate(-20.64)"/><rect class="cls-5" x="864.55" y="784.54" width="9.92" height="2.91" transform="translate(-1048.93 -337.83) rotate(-20.64)"/><rect class="cls-5" x="865.42" y="789.61" width="11.53" height="1.62" rx="0.68" ry="0.68" transform="translate(-1101.74 -172.97) rotate(-29.02)"/><rect class="cls-5" x="866.76" y="793.17" width="11.53" height="1.62" rx="0.68" ry="0.68" transform="translate(-1103.3 -171.87) rotate(-29.02)"/><rect class="cls-5" x="868.1" y="796.73" width="11.53" height="1.62" rx="0.68" ry="0.68" transform="translate(-1104.86 -170.77) rotate(-29.02)"/><rect class="cls-5" x="869.44" y="800.29" width="11.53" height="1.62" rx="0.68" ry="0.68" transform="translate(-1106.41 -169.67) rotate(-29.02)"/><rect class="cls-5" x="870.79" y="803.86" width="11.53" height="1.62" rx="0.68" ry="0.68" transform="translate(-1107.97 -168.57) rotate(-29.02)"/><path class="cls-5" d="M873.19,809.86c0.16,0.43.17,0.47,0.18,0.51l1.27,3.38a1.6,1.6,0,0,0,2.06.93L883,812.3a1.6,1.6,0,0,0,.93-2.06l-1.27-3.38s0-.07-0.2-0.5Z" transform="translate(-827.69 -694.75)"/><line class="cls-6" x1="39.29" y1="94.32" x2="46.73" y2="114.08"/><line class="cls-6" x1="45.71" y1="91.9" x2="53.15" y2="111.67"/><circle class="cls-3" cx="881.86" cy="775.97" r="2.57" transform="translate(-1044.6 -334.12) rotate(-20.64)"/><circle class="cls-4" cx="896.32" cy="814.37" r="4.47" transform="translate(-1057.21 -326.56) rotate(-20.64)"/><rect class="cls-5" x="880.2" y="777.74" width="5.13" height="1.26" transform="translate(-1045.39 -333.65) rotate(-20.64)"/><rect class="cls-5" x="891.93" y="808.48" width="5.13" height="2.08" transform="translate(-1055.61 -327.51) rotate(-20.64)"/><rect class="cls-5" x="878.59" y="779.25" width="9.92" height="2.91" transform="translate(-1046.16 -333.22) rotate(-20.64)"/><rect class="cls-5" x="879.46" y="784.32" width="11.53" height="1.62" rx="0.68" ry="0.68" transform="translate(-1097.41 -166.82) rotate(-29.02)"/><rect class="cls-5" x="880.8" y="787.88" width="11.53" height="1.62" rx="0.68" ry="0.68" transform="translate(-1098.97 -165.72) rotate(-29.02)"/><rect class="cls-5" x="882.14" y="791.44" width="11.53" height="1.62" rx="0.68" ry="0.68" transform="translate(-1100.53 -164.63) rotate(-29.02)"/><rect class="cls-5" x="883.48" y="795.01" width="11.53" height="1.62" rx="0.68" ry="0.68" transform="translate(-1102.09 -163.53) rotate(-29.02)"/><rect class="cls-5" x="884.82" y="798.57" width="11.53" height="1.62" rx="0.68" ry="0.68" transform="translate(-1103.65 -162.43) rotate(-29.02)"/><path class="cls-5" d="M887.22,804.57c0.16,0.43.17,0.47,0.18,0.51l1.27,3.38a1.6,1.6,0,0,0,2.06.93l6.33-2.38A1.6,1.6,0,0,0,898,805l-1.27-3.38s0-.07-0.2-0.5Z" transform="translate(-827.69 -694.75)"/><line class="cls-6" x1="53.32" y1="89.03" x2="60.77" y2="108.8"/><line class="cls-6" x1="59.74" y1="86.61" x2="67.19" y2="106.38"/></svg>